<svg 
 xmlns="http://www.w3.org/2000/svg"
 xmlns:xlink="http://www.w3.org/1999/xlink"
 width="654px" height="132px">
<path fill-rule="evenodd"  fill="rgb(255, 255, 255)"
 d="M613.521,93.882 C613.161,96.762 613.161,98.562 613.161,101.622 C613.161,110.802 614.421,122.681 624.501,122.681 C630.081,122.681 638.180,119.081 647.000,109.362 L648.620,110.982 C634.041,128.441 623.241,131.141 616.401,131.141 C609.382,131.141 601.282,126.461 601.282,107.382 C601.282,89.742 608.302,70.663 620.001,60.224 C626.481,54.644 636.021,49.784 641.780,49.784 C648.620,49.784 653.120,56.084 653.120,62.744 C653.120,78.223 629.001,89.202 613.521,93.882 ZM634.761,55.364 C632.601,55.364 630.441,56.444 628.281,58.064 C625.221,60.044 617.661,67.963 614.061,91.002 C635.841,83.623 642.860,75.343 642.860,65.623 C642.860,59.144 639.440,55.364 634.761,55.364 ZM579.501,113.501 C578.601,118.361 579.321,119.981 580.581,119.981 C582.021,119.981 587.241,116.561 591.561,112.242 L593.181,113.681 C585.801,122.681 575.002,131.141 571.222,131.141 C567.982,131.141 566.182,127.001 569.422,111.162 C575.542,81.103 581.481,51.044 587.421,20.985 C589.581,10.366 588.681,9.286 580.941,9.106 L576.982,9.106 L577.161,7.126 C590.841,5.506 598.221,1.546 600.381,1.546 C601.820,1.546 601.461,4.426 600.561,8.566 C593.541,40.784 586.521,75.343 579.501,113.501 ZM543.860,112.422 C543.140,117.821 543.680,119.981 544.940,119.981 C546.200,119.981 551.060,117.461 555.379,112.961 L556.459,114.761 C548.900,124.121 538.640,131.141 535.400,131.141 C532.880,131.141 529.820,129.161 533.960,108.642 L536.120,97.842 L535.760,97.842 C528.560,107.922 522.261,116.021 517.041,121.241 C510.021,128.261 505.701,131.141 501.742,131.141 C497.422,131.141 492.742,124.301 492.742,111.162 C492.742,94.422 499.942,75.343 511.641,64.003 C518.301,57.524 529.460,49.784 537.920,49.784 C540.080,49.784 542.060,49.784 545.480,50.864 L551.600,18.465 C553.219,10.186 552.500,9.286 546.020,9.286 L540.440,9.106 L540.620,7.126 C554.299,5.506 563.299,1.546 564.919,1.546 C566.179,1.546 565.999,3.166 564.919,8.206 C557.179,43.124 549.980,77.323 543.860,112.422 ZM532.700,55.364 C528.201,55.364 526.041,56.624 523.521,58.784 C510.741,69.043 505.161,93.882 505.161,108.282 C505.161,116.201 506.961,121.601 509.841,121.601 C516.321,121.601 531.620,99.282 537.740,88.122 L543.680,58.964 C540.620,56.804 536.660,55.364 532.700,55.364 ZM471.680,112.961 C470.600,118.541 470.780,120.161 471.680,120.161 C473.120,120.161 477.620,116.921 480.859,113.501 L482.299,115.121 C475.100,124.481 465.560,131.141 462.320,131.141 C459.260,131.141 458.000,126.821 460.340,115.301 C463.940,100.182 467.180,85.243 470.420,70.303 C472.220,61.844 471.680,58.244 469.520,58.244 C464.120,58.244 445.581,80.563 437.121,95.682 C434.781,105.762 432.441,115.841 430.101,127.901 C426.322,128.441 422.362,129.701 419.482,130.421 L418.582,129.701 C423.082,110.802 427.402,91.362 431.721,71.203 C433.521,63.464 433.341,60.584 432.261,60.584 C430.821,60.584 426.142,64.183 422.722,67.423 L421.462,65.803 C429.381,56.444 438.201,49.784 441.981,49.784 C444.861,49.784 445.221,56.084 441.801,71.923 L438.381,86.863 L438.741,86.863 C453.680,64.543 465.020,56.084 470.240,52.844 C473.480,50.864 476.180,49.784 478.519,49.784 C481.579,49.784 484.999,52.124 480.499,72.463 C477.620,85.783 474.740,99.462 471.680,112.961 ZM396.260,119.981 C398.240,119.981 403.459,116.021 407.239,112.422 L408.499,114.401 C401.300,123.041 391.040,131.141 386.360,131.141 C383.300,131.141 382.400,126.821 384.560,117.101 C386.000,110.262 387.440,103.422 388.880,96.582 L388.520,96.582 C381.500,107.022 371.421,118.901 364.401,124.661 C360.441,127.901 355.401,131.141 351.262,131.141 C348.382,131.141 343.342,128.801 347.122,112.062 C350.542,96.402 354.141,81.103 357.381,65.623 C358.281,62.204 357.741,61.124 356.841,61.124 C355.401,61.124 351.802,63.284 346.762,67.603 L345.502,65.803 C353.781,56.984 363.681,49.784 367.821,49.784 C370.161,49.784 370.341,53.924 368.361,63.104 C364.941,78.943 361.341,94.962 357.741,111.162 C356.481,117.101 356.481,121.061 359.721,121.061 C368.901,121.061 386.540,94.782 390.500,86.683 C393.200,76.423 395.540,65.263 397.700,54.824 L407.959,49.784 L409.579,49.784 C405.079,68.323 400.940,86.863 395.900,112.602 C394.820,118.001 394.1000,119.981 396.260,119.981 ZM288.081,131.141 C283.762,131.141 279.802,128.081 277.642,124.661 C275.662,121.421 274.942,115.481 277.102,104.502 C282.682,77.323 288.441,50.324 295.101,16.665 C296.541,9.646 295.821,9.286 289.341,9.106 L284.841,9.106 L284.841,7.126 C296.181,5.866 305.361,1.546 307.701,1.546 C309.320,1.546 309.320,3.166 308.421,7.126 C302.661,31.245 298.341,51.044 292.761,76.783 L293.121,76.783 C307.341,57.524 320.480,49.784 327.140,49.784 C332.180,49.784 336.499,55.724 336.499,65.983 C336.499,86.683 325.880,109.722 311.480,120.881 C302.121,128.441 293.481,131.141 288.081,131.141 ZM319.040,58.064 C313.460,58.064 304.101,65.983 291.861,83.803 C290.781,87.943 289.521,94.962 288.441,101.082 C284.482,122.141 291.681,125.201 296.181,125.201 C299.061,125.201 302.481,123.581 304.641,122.141 C312.020,116.921 324.440,94.422 324.440,70.303 C324.440,61.664 322.100,58.064 319.040,58.064 ZM227.662,0.461 L248.062,0.461 L248.062,128.981 L227.662,128.981 L227.662,0.461 ZM195.532,117.761 L195.022,117.761 C192.074,122.409 188.334,125.780 183.802,127.876 C179.268,129.972 174.282,131.021 168.842,131.021 C165.102,131.021 161.447,130.511 157.877,129.491 C154.307,128.471 151.133,126.941 148.357,124.901 C145.579,122.861 143.342,120.311 141.642,117.251 C139.942,114.191 139.092,110.621 139.092,106.541 C139.092,102.121 139.884,98.354 141.472,95.236 C143.058,92.120 145.183,89.514 147.847,87.416 C150.509,85.320 153.598,83.649 157.112,82.401 C160.624,81.155 164.279,80.220 168.077,79.596 C171.873,78.974 175.698,78.576 179.552,78.406 C183.404,78.236 187.032,78.151 190.432,78.151 L195.532,78.151 L195.532,75.941 C195.532,70.841 193.774,67.016 190.262,64.466 C186.748,61.916 182.272,60.641 176.832,60.641 C172.524,60.641 168.502,61.406 164.762,62.936 C161.022,64.466 157.792,66.535 155.072,69.141 L144.362,58.431 C148.894,53.785 154.193,50.441 160.257,48.401 C166.319,46.361 172.582,45.341 179.042,45.341 C184.822,45.341 189.694,45.994 193.662,47.296 C197.628,48.600 200.914,50.271 203.522,52.311 C206.128,54.351 208.139,56.704 209.557,59.366 C210.973,62.030 211.993,64.721 212.617,67.441 C213.239,70.161 213.608,72.796 213.722,75.346 C213.834,77.896 213.892,80.135 213.892,82.061 L213.892,128.981 L195.532,128.981 L195.532,117.761 ZM194.342,92.431 L190.092,92.431 C187.258,92.431 184.084,92.545 180.572,92.771 C177.058,92.999 173.743,93.536 170.627,94.386 C167.509,95.236 164.874,96.484 162.722,98.126 C160.568,99.770 159.492,102.065 159.492,105.011 C159.492,106.939 159.917,108.554 160.767,109.856 C161.617,111.160 162.722,112.265 164.082,113.171 C165.442,114.079 166.972,114.730 168.672,115.126 C170.372,115.524 172.072,115.721 173.772,115.721 C180.798,115.721 185.983,114.050 189.327,110.706 C192.669,107.364 194.342,102.801 194.342,97.021 L194.342,92.431 ZM78.912,109.601 C82.992,113.001 87.922,114.701 93.702,114.701 C98.802,114.701 103.079,113.654 106.537,111.556 C109.993,109.460 113.024,106.825 115.632,103.651 L130.252,114.701 C125.492,120.595 120.164,124.789 114.272,127.281 C108.378,129.772 102.202,131.021 95.742,131.021 C89.622,131.021 83.842,130.001 78.402,127.961 C72.962,125.921 68.258,123.031 64.292,119.291 C60.324,115.551 57.179,111.046 54.857,105.776 C52.533,100.506 51.372,94.641 51.372,88.181 C51.372,81.721 52.533,75.856 54.857,70.586 C57.179,65.316 60.324,60.811 64.292,57.071 C68.258,53.331 72.962,50.441 78.402,48.401 C83.842,46.361 89.622,45.341 95.742,45.341 C101.408,45.341 106.593,46.334 111.297,48.316 C115.999,50.300 120.023,53.161 123.367,56.901 C126.709,60.641 129.317,65.260 131.187,70.756 C133.057,76.254 133.992,82.571 133.992,89.711 L133.992,95.321 L71.772,95.321 C72.452,101.441 74.832,106.201 78.912,109.601 ZM113.592,80.021 C113.478,74.015 111.608,69.284 107.982,65.826 C104.354,62.370 99.312,60.641 92.852,60.641 C86.732,60.641 81.887,62.399 78.317,65.911 C74.747,69.425 72.564,74.129 71.772,80.021 L113.592,80.021 ZM48.057,65.146 C46.413,64.864 44.798,64.721 43.212,64.721 C38.452,64.721 34.627,65.600 31.737,67.356 C28.847,69.114 26.637,71.125 25.107,73.391 C23.577,75.659 22.557,77.925 22.047,80.191 C21.537,82.459 21.282,84.159 21.282,85.291 L21.282,128.981 L0.882,128.981 L0.882,47.381 L21.282,47.381 L21.282,60.301 L21.622,60.301 C23.888,55.541 27.118,51.859 31.312,49.251 C35.504,46.645 40.322,45.341 45.762,45.341 C47.008,45.341 48.227,45.455 49.417,45.681 C50.607,45.909 51.824,46.191 53.072,46.531 L53.072,66.251 C51.372,65.799 49.699,65.430 48.057,65.146 Z"/>
</svg>